<svg xmlns="http://www.w3.org/2000/svg" viewBox="0 0 77.335 86.459">
<g id="Shield">
	<path fill="#FFFFFF" stroke="#FFFFFF" stroke-miterlimit="10" d="M0.508,0.5h76.328c0,0,0,37.496,0,38.157
		C76.318,69.76,41.464,86.108,37.079,85.958C32.519,85.802,0.405,69.808,0.5,38.496C0.502,37.932,0.508,0.5,0.508,0.5z"/>
	<path fill="#FFFFFF" d="M2.349,2.529h72.693c0,0,0,35.711,0,36.34C74.55,68.492,41.354,84.06,37.178,83.918
		C32.835,83.769,2.251,68.534,2.341,38.714C2.344,38.179,2.349,2.529,2.349,2.529z"/>
	<path fill="#971D20" d="M2.342,24.614C2.447,24.718,2.346,2.535,2.346,2.535h72.639c0,0,0,11.897,0,22.08L2.342,24.614z"/>
	<path fill="#243169" d="M6.411,56.937c2.795,5.873,6.25,10.603,11.098,14.625L38.66,50.177L59.02,71.06
		c4.196-3.838,8.284-8.485,11.215-13.99l-31.6-30.398L6.557,57L6.411,56.937z"/>
	<path fill="none" stroke="#010101" stroke-width="0.4715" stroke-miterlimit="3.8636" d="M38.678,19.474"/>
	<path fill="none" stroke="#010101" stroke-width="0.4715" stroke-miterlimit="3.8636" d="M29.565,21.178"/>
	<path fill="none" stroke="#010101" stroke-width="0.4715" stroke-miterlimit="3.8636" d="M24.923,22.314"/>
	<line fill="none" stroke="#243169" stroke-width="0.504" stroke-miterlimit="10" x1="2.342" y1="24.764" x2="74.981" y2="24.754"/>
	<path fill="none" stroke="#010101" stroke-width="0.4715" stroke-miterlimit="3.8636" d="M36.349,18.286"/>
	<path fill="none" stroke="#010101" stroke-width="0.4715" stroke-miterlimit="3.8636" d="M27.182,22.503"/>
	<path fill="none" stroke="#010101" stroke-width="0.4715" stroke-miterlimit="3.8636" d="M31.677,19.001"/>
	<path fill="none" stroke="#010101" stroke-width="0.4715" stroke-miterlimit="3.8636" d="M34.13,17.883"/>
	<path fill="none" stroke="#010101" stroke-width="0.4715" stroke-miterlimit="3.8636" d="M41.263,20.705"/>
	<path fill="none" stroke="#010101" stroke-width="0.2522" stroke-miterlimit="3.8636" d="M15.873,70.151"/>
	<path fill="#FFFFFF" stroke="#243169" stroke-width="0.5045" stroke-miterlimit="3.8636" d="M56.785,8.021h1.978
		c1.45-0.331,1.979-1.171,3.464-1.171c1.068,0,1.572,0.709,2.357,0.709c0.664,0,1.683-0.757,2.799-0.757
		c1.144,0,1.709,0.688,2.459,1.005c0.662,0.284,1.533,0.269,2.455,0.269c-0.024,0.663,0,1.056,0,1.611
		c0,0.568,0.763,0.344,0.763,1.266c0,0.97-0.983,0.781-0.983,1.171l-0.037,3.609c0.049,0.449,0.957,0.508,0.957,1.194
		c0,1.018-1.011,0.666-0.945,1.467c0.048,0.592,0,1.846,0,1.846c-1.953,0-14.512,0.115-15.127,0.091
		c0.037-1.336,0.246-1.257,0.293-1.901c0.037-0.521-1.129-0.84-1.129-1.716c0-0.604,0.699-0.568,0.76-1.136v-3.596
		c-0.036-0.473-1.092-0.709-1.057-1.383c0.045-0.807,0.982-0.704,0.982-1.243C56.773,9.122,56.798,8.246,56.785,8.021z"/>
	<path fill="none" stroke="#243169" stroke-width="0.504" stroke-miterlimit="10" d="M58.395,8.081c0,0,0.024,8.044,0,9.938
		c0,0,11.716,0.023,12.231-0.024c0-2.141-0.013-9.972-0.013-9.972"/>
	<line fill="none" stroke="#243169" stroke-width="0.504" stroke-miterlimit="10" x1="64.522" y1="7.584" x2="64.522" y2="18.042"/>
	<path fill="#243169" stroke="#243169" stroke-width="0.504" stroke-miterlimit="3.8636" d="M64.707,16.752
		c0.517,0.023,1.463,0.372,2.383,0.65c1.19,0.36,2.455,0.108,3.39,0.295c0.295,0.059-5.771,0.105-5.771,0.105
		C64.732,16.634,64.707,16.752,64.707,16.752z"/>
	<g>

			<ellipse fill="#243169" stroke="#243169" stroke-width="0.504" stroke-miterlimit="3.8636" cx="64.516" cy="18.302" rx="0.683" ry="0.473"/>
		<path fill="#243169" stroke="#243169" stroke-width="0.504" stroke-miterlimit="3.8636" d="M64.516,18.302"/>
	</g>
	<path fill="#243169" stroke="#243169" stroke-width="0.504" stroke-miterlimit="3.8636" d="M64.182,16.752
		c-0.517,0.023-1.463,0.372-2.384,0.65c-1.19,0.36-2.454,0.108-3.389,0.295c-0.293,0.059,5.772,0.105,5.772,0.105
		C64.158,16.634,64.182,16.752,64.182,16.752z"/>
	<path fill="#FFFFFF" stroke="#243169" stroke-width="0.504" stroke-miterlimit="3.8636" d="M23.928,21.294
		c0.196,0.769,0.774,1.277,1.72,1.277c1.755,0,3.451-1.301,4.47-2.035c0.799-0.568,1.622-1.171,1.622-2.414l-0.147,0.473
		c0,0,1.375-1.372,4.764-0.284c0.942,0.302,4.975,2.567,5.848,2.934c0.75,0.319,3.375,2.203,7.479,1.477
		c0,0,6.266-0.862,4.865-7.315c-1.002-4.611-0.689-4.94-0.31-6.418c-0.147-0.071-3.831-0.899-3.733,4.212
		c-1.598,0.167-3.635,1.373-2.31,4.544c0.541-0.804,1.265-1.656,2.261-1.656c0.625,0,1.285,0.9,1.326,1.561
		c0.098,1.609-1.523,2.318-3.537,1.987c-1.021-0.167-1.961-1.299-3.369-2.317c0.246-0.118,0.471-0.947,0.471-1.278
		c0-0.815-0.7-1.194-1.178-1.467c0.098-0.283,0.293-0.663,0.293-0.946c0-0.651-0.922-0.604-1.276-0.852
		c0.146-0.201,0.146-0.083,0.146-0.378c0-0.947,0.147-1.467-1.768-1.42c0.16-0.935-0.038-1.538-0.688-1.798l-1.424-0.189
		c-0.885-0.165-0.002-0.459-0.819-1.247c-0.729-0.702-1.926,0-1.926,0c0-0.65-0.449-1.167-1.235-1.167
		c-0.417,0-0.932,0.036-1.228,0.189l-0.59,0.473c-0.737,0-0.921-0.662-1.769-0.662c-0.847,0-1.191,0.662-1.522,1.088
		c-0.577-0.272-0.65-0.757-1.424-0.757c-0.455,0-0.588,0.485-0.786,0.71c-0.504,0.556-0.467,1.132-1.253,1.416L26.609,8.52
		c-0.009-0.032-0.018-0.065-0.026-0.098c-1.155,0.556-3.759,6.494-3.759,7.712c0,1.16,1.008,0.652,1.008,1.894
		c0,0.733-1.082,1.266-1.082,1.893c0,0.793,0.921,1.183,1.719,1.183L23.928,21.294z"/>
	<path fill="#243169" stroke="#243169" stroke-width="0.504" stroke-miterlimit="3.8636" d="M26.642,16.305
		c0,0,1.278,0.491,1.278,0.757c0,0.359-0.826,0.757-1.376,1.23h-0.688c0.247-0.805,0-0.511,0-1.23
		C25.856,16.522,26.426,16.305,26.642,16.305z"/>
	<path fill="none" stroke="#243169" stroke-width="0.504" stroke-miterlimit="10" d="M31.31,14.127
		c0.663-0.319,0.355-1.135,1.424-1.135c0.946,0,1.303,0.662,2.163,0.662c0.577,0,0.981-0.567,1.769-0.567
		c0.7,0,1.622,0.947,1.474,2.082c0,0,2.456-0.804,2.357,1.846c1.965-0.663,1.768,0.958,1.965,1.751
		c0.197,0.757,1.475,0.142,1.276,1.75"/>
	<path fill="#FFFFFF" stroke="#243169" stroke-width="0.5045" stroke-miterlimit="3.8636" d="M5.091,8.085h1.977
		c1.449-0.332,1.979-1.171,3.463-1.171c1.068,0,1.572,0.71,2.357,0.71c0.663,0,1.682-0.757,2.799-0.757
		c1.143,0,1.708,0.687,2.457,1.005c0.664,0.284,1.536,0.269,2.457,0.269c-0.025,0.663,0,1.056,0,1.611
		c0,0.568,0.76,0.343,0.76,1.265c0,0.971-0.981,0.781-0.981,1.172l-0.038,3.608c0.049,0.449,0.958,0.509,0.958,1.194
		c0,1.018-1.013,0.666-0.946,1.466c0.049,0.592,0,1.846,0,1.846c-1.953,0-14.247,0.012-14.861-0.012
		c0.038-1.336-0.021-1.154,0.025-1.798c0.037-0.521-1.13-0.84-1.13-1.716c0-0.604,0.701-0.567,0.762-1.135v-3.596
		c-0.038-0.473-1.093-0.71-1.056-1.384C4.138,9.857,5.076,9.96,5.076,9.421C5.079,9.185,5.104,8.31,5.091,8.085z"/>
	<path fill="none" stroke="#243169" stroke-width="0.504" stroke-miterlimit="10" d="M6.699,8.145c0,0,0.025,8.045,0,9.937
		c0,0,11.717,0.023,12.233-0.024c0-2.141-0.014-9.973-0.014-9.973"/>
	<line fill="none" stroke="#243169" stroke-width="0.504" stroke-miterlimit="10" x1="12.828" y1="7.648" x2="12.828" y2="18.105"/>
	<path fill="#243169" stroke="#243169" stroke-width="0.504" stroke-miterlimit="3.8636" d="M13.012,16.815
		c0.517,0.024,1.463,0.373,2.383,0.65c1.19,0.361,2.454,0.108,3.388,0.296c0.296,0.06-5.771,0.106-5.771,0.106
		C13.036,16.697,13.012,16.815,13.012,16.815z"/>
	<g>

			<ellipse fill="#243169" stroke="#243169" stroke-width="0.504" stroke-miterlimit="3.8636" cx="12.822" cy="18.366" rx="0.682" ry="0.474"/>
		<path fill="#243169" stroke="#243169" stroke-width="0.504" stroke-miterlimit="3.8636" d="M12.822,18.366"/>
	</g>
	<path fill="#243169" stroke="#243169" stroke-width="0.504" stroke-miterlimit="3.8636" d="M12.488,16.815
		c-0.515,0.024-1.462,0.373-2.382,0.65c-1.191,0.361-2.455,0.108-3.391,0.296c-0.294,0.059,5.772,0.106,5.772,0.106
		C12.464,16.697,12.488,16.815,12.488,16.815z"/>
	<g>

			<ellipse fill="#FFFFFF" stroke="#243169" stroke-width="0.5045" stroke-miterlimit="3.8636" cx="21.173" cy="54.516" rx="6.342" ry="6.111"/>
		<path fill="#FFFFFF" stroke="#243169" stroke-width="0.5045" stroke-miterlimit="3.8636" d="M21.173,54.517"/>
	</g>
	<g>

			<ellipse fill="#FFFFFF" stroke="#243169" stroke-width="0.5042" stroke-miterlimit="3.8636" cx="38.609" cy="39.843" rx="6.344" ry="6.11"/>
		<path fill="#FFFFFF" stroke="#175184" stroke-width="0.5042" stroke-miterlimit="3.8636" d="M38.609,39.843"/>
	</g>
	<g>

			<ellipse fill="#FFFFFF" stroke="#243169" stroke-width="0.5045" stroke-miterlimit="3.8636" cx="55.06" cy="54.516" rx="6.342" ry="6.111"/>
		<path fill="#FFFFFF" stroke="#243169" stroke-width="0.5045" stroke-miterlimit="3.8636" d="M55.061,54.517"/>
	</g>
	<path fill="none" stroke="#243169" stroke-width="0.504" stroke-miterlimit="10" d="M44.971,17.069
		c-1.621-1.784-3.05-3.878-3.296-3.983c-0.799-0.332-2.702-4.117-7.81-4.4c-1.298-0.072-6.184,0.403-6.352,1.652"/>
	<path fill="none" stroke="#243169" stroke-width="0.504" stroke-miterlimit="10" d="M31.771,18.445
		c0.019-0.122,0.029-0.252,0.029-0.39c0-0.203-1.197-0.088-1.481-0.172c-0.196-0.06,0.527-0.349,0.4-0.349
		c0.737-0.284,2.625-1.115,1.965-1.751c-0.639-0.615-1.02-1.266-1.375-1.656c-0.48-0.52-1.044-0.805-1.917-0.805
		c-0.75,0-1.963,1.299-2.466,1.655c0.368-0.355,1.435-1.276,1.435-2.034c0-1.704-1.362-3.182-1.719-4.589"/>
	<path fill="none" stroke="#243169" stroke-width="0.504" stroke-miterlimit="10" d="M24.427,21.035c1.35,0,2.112-0.094,2.751-0.425
		c0.7-0.366,1.965-1.159,2.259-1.846"/>
	<path fill="none" stroke="#243169" stroke-miterlimit="10" d="M2.325,2.535h72.692c0,0,0,35.711,0,36.341
		c-0.491,29.621-33.686,45.191-37.861,45.048C32.812,83.776,2.227,68.54,2.319,38.721C2.319,38.185,2.325,2.535,2.325,2.535z"/>
</g>
</svg>
